<mxfile host="app.diagrams.net" modified="2022-08-27T20:15:35.519Z" agent="5.0 (Windows NT 10.0; Win64; x64) AppleWebKit/537.36 (KHTML, like Gecko) Chrome/104.0.5112.102 Safari/537.36" etag="wp0IuqSScrS-c_1r_hTC" version="20.2.7" type="github" pages="2">
  <diagram id="5OYF28BWXmgYq9XRiZUG" name="Principal">
    <mxGraphModel dx="2076" dy="1242" grid="1" gridSize="10" guides="1" tooltips="1" connect="1" arrows="1" fold="1" page="1" pageScale="1" pageWidth="827" pageHeight="1169" math="0" shadow="0">
      <root>
        <mxCell id="0" />
        <mxCell id="1" parent="0" />
        <mxCell id="4s3Qs3QtYAxI6wC10brD-1" value="Mientras que op != 3" style="rounded=0;whiteSpace=wrap;html=1;fontFamily=Lucida Console;strokeWidth=2;verticalAlign=bottom;spacingBottom=5;" vertex="1" parent="1">
          <mxGeometry x="891" y="405" width="700" height="390" as="geometry" />
        </mxCell>
        <mxCell id="4s3Qs3QtYAxI6wC10brD-2" style="edgeStyle=orthogonalEdgeStyle;rounded=0;orthogonalLoop=1;jettySize=auto;html=1;exitX=0.5;exitY=1;exitDx=0;exitDy=0;exitPerimeter=0;entryX=0.5;entryY=0;entryDx=0;entryDy=0;fontSize=12;fontFamily=Lucida Console;" edge="1" parent="1" source="4s3Qs3QtYAxI6wC10brD-3" target="4s3Qs3QtYAxI6wC10brD-17">
          <mxGeometry relative="1" as="geometry" />
        </mxCell>
        <mxCell id="4s3Qs3QtYAxI6wC10brD-3" value="Inicio_Principal()" style="strokeWidth=2;html=1;shape=mxgraph.flowchart.terminator;whiteSpace=wrap;fontFamily=Lucida Console;" vertex="1" parent="1">
          <mxGeometry x="330.49" y="50" width="144.99" height="50" as="geometry" />
        </mxCell>
        <mxCell id="4s3Qs3QtYAxI6wC10brD-4" value="Fin_Principal" style="strokeWidth=2;html=1;shape=mxgraph.flowchart.terminator;whiteSpace=wrap;fontFamily=Lucida Console;" vertex="1" parent="1">
          <mxGeometry x="335.51" y="1070" width="134.98" height="50" as="geometry" />
        </mxCell>
        <mxCell id="4s3Qs3QtYAxI6wC10brD-5" style="edgeStyle=orthogonalEdgeStyle;rounded=0;orthogonalLoop=1;jettySize=auto;html=1;exitX=0.5;exitY=1;exitDx=0;exitDy=0;exitPerimeter=0;entryX=0.5;entryY=0;entryDx=0;entryDy=0;entryPerimeter=0;fontSize=12;fontFamily=Lucida Console;" edge="1" parent="1" source="4s3Qs3QtYAxI6wC10brD-6" target="4s3Qs3QtYAxI6wC10brD-8">
          <mxGeometry relative="1" as="geometry" />
        </mxCell>
        <mxCell id="4s3Qs3QtYAxI6wC10brD-6" value="Menú Principal" style="strokeWidth=2;html=1;shape=mxgraph.flowchart.display;whiteSpace=wrap;spacingLeft=20;spacingRight=10;verticalAlign=middle;fontSize=12;fontFamily=Lucida Console;" vertex="1" parent="1">
          <mxGeometry x="353" y="190" width="100" height="50" as="geometry" />
        </mxCell>
        <mxCell id="4s3Qs3QtYAxI6wC10brD-7" style="edgeStyle=orthogonalEdgeStyle;rounded=0;orthogonalLoop=1;jettySize=auto;html=1;exitX=0.5;exitY=1;exitDx=0;exitDy=0;exitPerimeter=0;entryX=0.5;entryY=0;entryDx=0;entryDy=0;entryPerimeter=0;fontSize=12;fontFamily=Lucida Console;" edge="1" parent="1" source="4s3Qs3QtYAxI6wC10brD-8" target="4s3Qs3QtYAxI6wC10brD-10">
          <mxGeometry relative="1" as="geometry" />
        </mxCell>
        <mxCell id="4s3Qs3QtYAxI6wC10brD-8" value="1. Ejecutar el programa con los valores preestablecidos del caso propuesto." style="strokeWidth=2;html=1;shape=mxgraph.flowchart.display;whiteSpace=wrap;spacingLeft=20;spacingRight=10;fontFamily=Lucida Console;" vertex="1" parent="1">
          <mxGeometry x="277.98" y="260" width="250" height="80" as="geometry" />
        </mxCell>
        <mxCell id="4s3Qs3QtYAxI6wC10brD-9" style="edgeStyle=orthogonalEdgeStyle;rounded=0;orthogonalLoop=1;jettySize=auto;html=1;exitX=0.5;exitY=1;exitDx=0;exitDy=0;exitPerimeter=0;entryX=0.5;entryY=0;entryDx=0;entryDy=0;entryPerimeter=0;" edge="1" parent="1" source="4s3Qs3QtYAxI6wC10brD-10" target="4s3Qs3QtYAxI6wC10brD-12">
          <mxGeometry relative="1" as="geometry" />
        </mxCell>
        <mxCell id="4s3Qs3QtYAxI6wC10brD-10" value="2. Ejecutar el programa introduciendo valores por teclado." style="strokeWidth=2;html=1;shape=mxgraph.flowchart.display;whiteSpace=wrap;spacingLeft=20;spacingRight=10;fontFamily=Lucida Console;" vertex="1" parent="1">
          <mxGeometry x="278" y="360" width="245" height="80" as="geometry" />
        </mxCell>
        <mxCell id="4s3Qs3QtYAxI6wC10brD-11" style="edgeStyle=orthogonalEdgeStyle;rounded=0;orthogonalLoop=1;jettySize=auto;html=1;exitX=0.5;exitY=1;exitDx=0;exitDy=0;exitPerimeter=0;entryX=0.5;entryY=0;entryDx=0;entryDy=0;entryPerimeter=0;fontSize=12;fontFamily=Lucida Console;" edge="1" parent="1" source="4s3Qs3QtYAxI6wC10brD-12" target="4s3Qs3QtYAxI6wC10brD-14">
          <mxGeometry relative="1" as="geometry" />
        </mxCell>
        <mxCell id="4s3Qs3QtYAxI6wC10brD-12" value="3. Salir." style="strokeWidth=2;html=1;shape=mxgraph.flowchart.display;whiteSpace=wrap;spacingLeft=20;spacingRight=10;fontFamily=Lucida Console;" vertex="1" parent="1">
          <mxGeometry x="352.99" y="460" width="100" height="50" as="geometry" />
        </mxCell>
        <mxCell id="4s3Qs3QtYAxI6wC10brD-13" style="edgeStyle=orthogonalEdgeStyle;rounded=0;orthogonalLoop=1;jettySize=auto;html=1;exitX=0.5;exitY=1;exitDx=0;exitDy=0;exitPerimeter=0;entryX=0.5;entryY=0;entryDx=0;entryDy=0;fontSize=12;fontFamily=Lucida Console;" edge="1" parent="1" source="4s3Qs3QtYAxI6wC10brD-14" target="4s3Qs3QtYAxI6wC10brD-15">
          <mxGeometry relative="1" as="geometry" />
        </mxCell>
        <mxCell id="4s3Qs3QtYAxI6wC10brD-14" value="Opción:&amp;nbsp;" style="strokeWidth=2;html=1;shape=mxgraph.flowchart.display;whiteSpace=wrap;spacingLeft=20;spacingRight=10;fontFamily=Lucida Console;" vertex="1" parent="1">
          <mxGeometry x="353" y="530" width="100" height="50" as="geometry" />
        </mxCell>
        <mxCell id="4s3Qs3QtYAxI6wC10brD-15" value="Leer op" style="shape=parallelogram;html=1;strokeWidth=2;perimeter=parallelogramPerimeter;whiteSpace=wrap;rounded=1;arcSize=12;size=0.23;fontSize=12;fontFamily=Lucida Console;" vertex="1" parent="1">
          <mxGeometry x="352.98" y="604" width="100" height="46" as="geometry" />
        </mxCell>
        <mxCell id="4s3Qs3QtYAxI6wC10brD-16" style="edgeStyle=orthogonalEdgeStyle;rounded=0;orthogonalLoop=1;jettySize=auto;html=1;exitX=0.5;exitY=1;exitDx=0;exitDy=0;entryX=0.5;entryY=0;entryDx=0;entryDy=0;entryPerimeter=0;fontSize=12;fontFamily=Lucida Console;" edge="1" parent="1" source="4s3Qs3QtYAxI6wC10brD-17" target="4s3Qs3QtYAxI6wC10brD-6">
          <mxGeometry relative="1" as="geometry" />
        </mxCell>
        <mxCell id="4s3Qs3QtYAxI6wC10brD-17" value="Definir op como &lt;i&gt;entero&lt;/i&gt;" style="rounded=1;whiteSpace=wrap;html=1;absoluteArcSize=1;arcSize=14;strokeWidth=2;fontSize=12;fontFamily=Lucida Console;" vertex="1" parent="1">
          <mxGeometry x="312.98" y="118" width="180" height="40" as="geometry" />
        </mxCell>
        <mxCell id="4s3Qs3QtYAxI6wC10brD-18" style="edgeStyle=orthogonalEdgeStyle;rounded=0;orthogonalLoop=1;jettySize=auto;html=1;exitX=1;exitY=0.5;exitDx=0;exitDy=0;exitPerimeter=0;fontFamily=Lucida Console;" edge="1" parent="1" source="4s3Qs3QtYAxI6wC10brD-22">
          <mxGeometry relative="1" as="geometry">
            <mxPoint x="403" y="170" as="targetPoint" />
            <Array as="points">
              <mxPoint x="788" y="940" />
              <mxPoint x="788" y="170" />
            </Array>
          </mxGeometry>
        </mxCell>
        <mxCell id="4s3Qs3QtYAxI6wC10brD-19" value="&amp;nbsp;V&amp;nbsp;" style="edgeLabel;html=1;align=center;verticalAlign=middle;resizable=0;points=[];fontFamily=Lucida Console;" vertex="1" connectable="0" parent="4s3Qs3QtYAxI6wC10brD-18">
          <mxGeometry x="-0.9542" y="1" relative="1" as="geometry">
            <mxPoint as="offset" />
          </mxGeometry>
        </mxCell>
        <mxCell id="4s3Qs3QtYAxI6wC10brD-20" style="edgeStyle=orthogonalEdgeStyle;rounded=0;orthogonalLoop=1;jettySize=auto;html=1;exitX=0;exitY=0.5;exitDx=0;exitDy=0;exitPerimeter=0;entryX=0.5;entryY=0;entryDx=0;entryDy=0;entryPerimeter=0;fontFamily=Lucida Console;" edge="1" parent="1">
          <mxGeometry relative="1" as="geometry">
            <Array as="points">
              <mxPoint x="268" y="940" />
              <mxPoint x="268" y="1020" />
              <mxPoint x="403" y="1020" />
            </Array>
            <mxPoint x="352.97999999999956" y="940" as="sourcePoint" />
            <mxPoint x="403" y="1070" as="targetPoint" />
          </mxGeometry>
        </mxCell>
        <mxCell id="4s3Qs3QtYAxI6wC10brD-21" value="&amp;nbsp;F&amp;nbsp;" style="edgeLabel;html=1;align=center;verticalAlign=middle;resizable=0;points=[];fontFamily=Lucida Console;" vertex="1" connectable="0" parent="4s3Qs3QtYAxI6wC10brD-20">
          <mxGeometry x="-0.8239" y="-2" relative="1" as="geometry">
            <mxPoint as="offset" />
          </mxGeometry>
        </mxCell>
        <mxCell id="4s3Qs3QtYAxI6wC10brD-22" value="op != 3" style="strokeWidth=2;html=1;shape=mxgraph.flowchart.decision;whiteSpace=wrap;fontSize=12;fontFamily=Lucida Console;" vertex="1" parent="1">
          <mxGeometry x="352.98" y="910" width="100" height="60" as="geometry" />
        </mxCell>
        <mxCell id="4s3Qs3QtYAxI6wC10brD-23" style="edgeStyle=orthogonalEdgeStyle;rounded=0;orthogonalLoop=1;jettySize=auto;html=1;exitX=0.5;exitY=1;exitDx=0;exitDy=0;entryX=0.5;entryY=0;entryDx=0;entryDy=0;fontFamily=Lucida Console;" edge="1" parent="1" source="4s3Qs3QtYAxI6wC10brD-24" target="4s3Qs3QtYAxI6wC10brD-32">
          <mxGeometry relative="1" as="geometry" />
        </mxCell>
        <mxCell id="4s3Qs3QtYAxI6wC10brD-24" value="1" style="rounded=0;whiteSpace=wrap;html=1;fontSize=12;strokeWidth=2;fontFamily=Lucida Console;" vertex="1" parent="1">
          <mxGeometry x="38" y="720" width="260" height="20" as="geometry" />
        </mxCell>
        <mxCell id="4s3Qs3QtYAxI6wC10brD-25" style="edgeStyle=orthogonalEdgeStyle;rounded=0;orthogonalLoop=1;jettySize=auto;html=1;exitX=0.5;exitY=1;exitDx=0;exitDy=0;entryX=0.5;entryY=0;entryDx=0;entryDy=0;fontFamily=Lucida Console;" edge="1" parent="1" source="4s3Qs3QtYAxI6wC10brD-26" target="4s3Qs3QtYAxI6wC10brD-37">
          <mxGeometry relative="1" as="geometry" />
        </mxCell>
        <mxCell id="4s3Qs3QtYAxI6wC10brD-26" value="2" style="rounded=0;whiteSpace=wrap;html=1;fontSize=12;strokeWidth=2;fontFamily=Lucida Console;" vertex="1" parent="1">
          <mxGeometry x="293" y="720" width="220" height="20" as="geometry" />
        </mxCell>
        <mxCell id="4s3Qs3QtYAxI6wC10brD-27" style="edgeStyle=orthogonalEdgeStyle;rounded=0;orthogonalLoop=1;jettySize=auto;html=1;exitX=0.5;exitY=1;exitDx=0;exitDy=0;entryX=0.5;entryY=0;entryDx=0;entryDy=0;entryPerimeter=0;" edge="1" parent="1" source="4s3Qs3QtYAxI6wC10brD-28" target="4s3Qs3QtYAxI6wC10brD-22">
          <mxGeometry relative="1" as="geometry">
            <Array as="points">
              <mxPoint x="553" y="890" />
              <mxPoint x="403" y="890" />
            </Array>
          </mxGeometry>
        </mxCell>
        <mxCell id="4s3Qs3QtYAxI6wC10brD-28" value="3" style="rounded=0;whiteSpace=wrap;html=1;fontSize=12;strokeWidth=2;fontFamily=Lucida Console;" vertex="1" parent="1">
          <mxGeometry x="508" y="720" width="90" height="20" as="geometry" />
        </mxCell>
        <mxCell id="4s3Qs3QtYAxI6wC10brD-29" style="edgeStyle=orthogonalEdgeStyle;rounded=0;orthogonalLoop=1;jettySize=auto;html=1;exitX=0.5;exitY=1;exitDx=0;exitDy=0;entryX=0.5;entryY=0;entryDx=0;entryDy=0;entryPerimeter=0;fontFamily=Lucida Console;" edge="1" parent="1" source="4s3Qs3QtYAxI6wC10brD-30" target="4s3Qs3QtYAxI6wC10brD-39">
          <mxGeometry relative="1" as="geometry" />
        </mxCell>
        <mxCell id="4s3Qs3QtYAxI6wC10brD-30" value="De otro modo" style="rounded=0;whiteSpace=wrap;html=1;fontSize=12;strokeWidth=2;fontFamily=Lucida Console;" vertex="1" parent="1">
          <mxGeometry x="598" y="720" width="150" height="20" as="geometry" />
        </mxCell>
        <mxCell id="4s3Qs3QtYAxI6wC10brD-31" style="edgeStyle=orthogonalEdgeStyle;rounded=0;orthogonalLoop=1;jettySize=auto;html=1;exitX=0.5;exitY=1;exitDx=0;exitDy=0;entryX=0.5;entryY=0;entryDx=0;entryDy=0;entryPerimeter=0;fontFamily=Lucida Console;" edge="1" parent="1" source="4s3Qs3QtYAxI6wC10brD-32" target="4s3Qs3QtYAxI6wC10brD-22">
          <mxGeometry relative="1" as="geometry">
            <Array as="points">
              <mxPoint x="163" y="890" />
              <mxPoint x="403" y="890" />
            </Array>
          </mxGeometry>
        </mxCell>
        <mxCell id="4s3Qs3QtYAxI6wC10brD-32" value="menuValoresPreestablecidos()" style="verticalLabelPosition=middle;verticalAlign=middle;html=1;shape=process;whiteSpace=wrap;rounded=1;size=0.038461538461538464;arcSize=6;labelPosition=center;align=center;strokeWidth=2;fontFamily=Lucida Console;" vertex="1" parent="1">
          <mxGeometry x="45.5" y="760" width="235" height="40" as="geometry" />
        </mxCell>
        <mxCell id="4s3Qs3QtYAxI6wC10brD-33" style="edgeStyle=orthogonalEdgeStyle;rounded=0;orthogonalLoop=1;jettySize=auto;html=1;exitX=0.5;exitY=1;exitDx=0;exitDy=0;entryX=0.5;entryY=0;entryDx=0;entryDy=0;entryPerimeter=0;fontFamily=Lucida Console;" edge="1" parent="1" source="4s3Qs3QtYAxI6wC10brD-34" target="4s3Qs3QtYAxI6wC10brD-22">
          <mxGeometry relative="1" as="geometry" />
        </mxCell>
        <mxCell id="4s3Qs3QtYAxI6wC10brD-34" value="menuValoresPorTeclado()" style="verticalLabelPosition=middle;verticalAlign=middle;html=1;shape=process;whiteSpace=wrap;rounded=1;size=0.038461538461538464;arcSize=6;labelPosition=center;align=center;strokeWidth=2;fontFamily=Lucida Console;" vertex="1" parent="1">
          <mxGeometry x="301.75" y="810" width="202.5" height="40" as="geometry" />
        </mxCell>
        <mxCell id="4s3Qs3QtYAxI6wC10brD-35" style="edgeStyle=orthogonalEdgeStyle;rounded=0;orthogonalLoop=1;jettySize=auto;html=1;exitX=0.5;exitY=1;exitDx=0;exitDy=0;fontFamily=Lucida Console;" edge="1" parent="1" source="4s3Qs3QtYAxI6wC10brD-28" target="4s3Qs3QtYAxI6wC10brD-28">
          <mxGeometry relative="1" as="geometry" />
        </mxCell>
        <mxCell id="4s3Qs3QtYAxI6wC10brD-36" style="edgeStyle=orthogonalEdgeStyle;rounded=0;orthogonalLoop=1;jettySize=auto;html=1;exitX=0.5;exitY=1;exitDx=0;exitDy=0;entryX=0.5;entryY=0;entryDx=0;entryDy=0;fontFamily=Lucida Console;" edge="1" parent="1" source="4s3Qs3QtYAxI6wC10brD-37" target="4s3Qs3QtYAxI6wC10brD-34">
          <mxGeometry relative="1" as="geometry" />
        </mxCell>
        <mxCell id="4s3Qs3QtYAxI6wC10brD-37" value="itr &amp;lt;-- 0" style="rounded=1;whiteSpace=wrap;html=1;absoluteArcSize=1;arcSize=14;strokeWidth=2;fontFamily=Lucida Console;" vertex="1" parent="1">
          <mxGeometry x="353" y="760" width="100" height="30" as="geometry" />
        </mxCell>
        <mxCell id="4s3Qs3QtYAxI6wC10brD-38" style="edgeStyle=orthogonalEdgeStyle;rounded=0;orthogonalLoop=1;jettySize=auto;html=1;exitX=0.5;exitY=1;exitDx=0;exitDy=0;exitPerimeter=0;entryX=0.5;entryY=0;entryDx=0;entryDy=0;entryPerimeter=0;fontFamily=Lucida Console;" edge="1" parent="1" source="4s3Qs3QtYAxI6wC10brD-39" target="4s3Qs3QtYAxI6wC10brD-22">
          <mxGeometry relative="1" as="geometry">
            <Array as="points">
              <mxPoint x="673" y="890" />
              <mxPoint x="403" y="890" />
            </Array>
          </mxGeometry>
        </mxCell>
        <mxCell id="4s3Qs3QtYAxI6wC10brD-39" value="Error, opción no encontrada." style="strokeWidth=2;html=1;shape=mxgraph.flowchart.display;whiteSpace=wrap;spacingLeft=20;spacingRight=10;fontFamily=Lucida Console;" vertex="1" parent="1">
          <mxGeometry x="603" y="760" width="140" height="65" as="geometry" />
        </mxCell>
        <mxCell id="4s3Qs3QtYAxI6wC10brD-40" value="Inicio_Principal()" style="rounded=0;whiteSpace=wrap;html=1;fontFamily=Lucida Console;strokeWidth=2;spacingLeft=5;spacingRight=5;" vertex="1" parent="1">
          <mxGeometry x="891" y="345" width="700" height="30" as="geometry" />
        </mxCell>
        <mxCell id="4s3Qs3QtYAxI6wC10brD-41" value="Definir op como&amp;nbsp;&lt;i&gt;entero&lt;/i&gt;" style="rounded=0;whiteSpace=wrap;html=1;fontFamily=Lucida Console;strokeWidth=2;spacingLeft=5;spacingRight=5;" vertex="1" parent="1">
          <mxGeometry x="891" y="375" width="700" height="30" as="geometry" />
        </mxCell>
        <mxCell id="4s3Qs3QtYAxI6wC10brD-42" value="Escribir &quot;Menú principal&quot;" style="rounded=0;whiteSpace=wrap;html=1;fontFamily=Lucida Console;strokeWidth=2;spacingLeft=5;spacingRight=5;" vertex="1" parent="1">
          <mxGeometry x="931" y="405" width="660" height="30" as="geometry" />
        </mxCell>
        <mxCell id="4s3Qs3QtYAxI6wC10brD-43" value="Escribir &quot;1. Ejecutar el programa con los valores preestablecidos del caso propuesto.&quot;" style="rounded=0;whiteSpace=wrap;html=1;fontFamily=Lucida Console;strokeWidth=2;spacingLeft=5;spacingRight=5;" vertex="1" parent="1">
          <mxGeometry x="931" y="435" width="660" height="40" as="geometry" />
        </mxCell>
        <mxCell id="4s3Qs3QtYAxI6wC10brD-44" value="Escribir &quot;2. Ejecutar el programa introduciendo valores por teclado.&quot;" style="rounded=0;whiteSpace=wrap;html=1;fontFamily=Lucida Console;strokeWidth=2;spacingLeft=5;spacingRight=5;" vertex="1" parent="1">
          <mxGeometry x="931" y="475" width="660" height="40" as="geometry" />
        </mxCell>
        <mxCell id="4s3Qs3QtYAxI6wC10brD-45" value="Escribir &quot;3. Salir.&quot;" style="rounded=0;whiteSpace=wrap;html=1;fontFamily=Lucida Console;strokeWidth=2;spacingLeft=5;spacingRight=5;" vertex="1" parent="1">
          <mxGeometry x="931" y="515" width="660" height="30" as="geometry" />
        </mxCell>
        <mxCell id="4s3Qs3QtYAxI6wC10brD-46" value="Escribir &quot;Opción: &quot;" style="rounded=0;whiteSpace=wrap;html=1;fontFamily=Lucida Console;strokeWidth=2;spacingLeft=5;spacingRight=5;" vertex="1" parent="1">
          <mxGeometry x="931" y="545" width="660" height="30" as="geometry" />
        </mxCell>
        <mxCell id="4s3Qs3QtYAxI6wC10brD-47" value="Leer op" style="rounded=0;whiteSpace=wrap;html=1;fontFamily=Lucida Console;strokeWidth=2;spacingLeft=5;spacingRight=5;" vertex="1" parent="1">
          <mxGeometry x="931" y="575" width="660" height="30" as="geometry" />
        </mxCell>
        <mxCell id="4s3Qs3QtYAxI6wC10brD-48" value="op" style="rounded=0;whiteSpace=wrap;html=1;fontFamily=Lucida Console;strokeWidth=2;spacingLeft=280;spacingRight=5;spacingTop=0;spacingBottom=30;" vertex="1" parent="1">
          <mxGeometry x="931" y="605" width="660" height="100" as="geometry" />
        </mxCell>
        <mxCell id="4s3Qs3QtYAxI6wC10brD-49" value="menuValoresPreestablecidos()" style="rounded=0;whiteSpace=wrap;html=1;fontFamily=Lucida Console;strokeWidth=2;spacingLeft=5;spacingRight=5;" vertex="1" parent="1">
          <mxGeometry x="931" y="705" width="220" height="30" as="geometry" />
        </mxCell>
        <mxCell id="4s3Qs3QtYAxI6wC10brD-50" value="itr &amp;lt;-- 0" style="rounded=0;whiteSpace=wrap;html=1;fontFamily=Lucida Console;strokeWidth=2;spacingLeft=5;spacingRight=5;" vertex="1" parent="1">
          <mxGeometry x="1151" y="705" width="190" height="30" as="geometry" />
        </mxCell>
        <mxCell id="4s3Qs3QtYAxI6wC10brD-51" value="Escribir &quot;Error, opción no encontrada.&quot;" style="rounded=0;whiteSpace=wrap;html=1;fontFamily=Lucida Console;strokeWidth=2;spacingLeft=5;spacingRight=5;" vertex="1" parent="1">
          <mxGeometry x="1401" y="705" width="190" height="30" as="geometry" />
        </mxCell>
        <mxCell id="4s3Qs3QtYAxI6wC10brD-52" value="1" style="text;html=1;strokeColor=none;fillColor=none;align=center;verticalAlign=middle;whiteSpace=wrap;rounded=0;fontFamily=Lucida Console;" vertex="1" parent="1">
          <mxGeometry x="931" y="675" width="220" height="30" as="geometry" />
        </mxCell>
        <mxCell id="4s3Qs3QtYAxI6wC10brD-53" value="2" style="text;html=1;strokeColor=none;fillColor=none;align=center;verticalAlign=middle;whiteSpace=wrap;rounded=0;fontFamily=Lucida Console;" vertex="1" parent="1">
          <mxGeometry x="1151" y="675" width="190" height="30" as="geometry" />
        </mxCell>
        <mxCell id="4s3Qs3QtYAxI6wC10brD-54" value="3" style="text;html=1;strokeColor=none;fillColor=none;align=center;verticalAlign=middle;whiteSpace=wrap;rounded=0;fontFamily=Lucida Console;" vertex="1" parent="1">
          <mxGeometry x="1341" y="675" width="60" height="30" as="geometry" />
        </mxCell>
        <mxCell id="4s3Qs3QtYAxI6wC10brD-55" value="De otro modo" style="text;html=1;strokeColor=none;fillColor=none;align=center;verticalAlign=middle;whiteSpace=wrap;rounded=0;fontFamily=Lucida Console;" vertex="1" parent="1">
          <mxGeometry x="1401" y="675" width="190" height="30" as="geometry" />
        </mxCell>
        <mxCell id="4s3Qs3QtYAxI6wC10brD-56" value="" style="rounded=0;whiteSpace=wrap;html=1;fontFamily=Lucida Console;strokeWidth=2;spacingLeft=5;spacingRight=5;" vertex="1" parent="1">
          <mxGeometry x="1341" y="705" width="60" height="60" as="geometry" />
        </mxCell>
        <mxCell id="4s3Qs3QtYAxI6wC10brD-57" value="menuValoresPorTeclado()" style="rounded=0;whiteSpace=wrap;html=1;fontFamily=Lucida Console;strokeWidth=2;spacingLeft=5;spacingRight=5;" vertex="1" parent="1">
          <mxGeometry x="1151" y="735" width="190" height="30" as="geometry" />
        </mxCell>
        <mxCell id="4s3Qs3QtYAxI6wC10brD-58" value="" style="rounded=0;whiteSpace=wrap;html=1;fontFamily=Lucida Console;strokeWidth=2;" vertex="1" parent="1">
          <mxGeometry x="931" y="735" width="220" height="30" as="geometry" />
        </mxCell>
        <mxCell id="4s3Qs3QtYAxI6wC10brD-59" value="" style="endArrow=none;html=1;rounded=0;fontFamily=Lucida Console;exitX=0;exitY=0;exitDx=0;exitDy=0;entryX=0;entryY=0;entryDx=0;entryDy=0;strokeWidth=2;" edge="1" parent="1" source="4s3Qs3QtYAxI6wC10brD-48" target="4s3Qs3QtYAxI6wC10brD-55">
          <mxGeometry width="50" height="50" relative="1" as="geometry">
            <mxPoint x="1201" y="625" as="sourcePoint" />
            <mxPoint x="1251" y="575" as="targetPoint" />
          </mxGeometry>
        </mxCell>
        <mxCell id="4s3Qs3QtYAxI6wC10brD-60" value="" style="endArrow=none;html=1;rounded=0;fontFamily=Lucida Console;strokeWidth=2;exitX=0;exitY=0;exitDx=0;exitDy=0;entryX=1;entryY=0;entryDx=0;entryDy=0;" edge="1" parent="1" source="4s3Qs3QtYAxI6wC10brD-55" target="4s3Qs3QtYAxI6wC10brD-48">
          <mxGeometry width="50" height="50" relative="1" as="geometry">
            <mxPoint x="1381" y="865" as="sourcePoint" />
            <mxPoint x="1251" y="575" as="targetPoint" />
          </mxGeometry>
        </mxCell>
        <mxCell id="4s3Qs3QtYAxI6wC10brD-61" value="" style="endArrow=none;html=1;rounded=0;fontFamily=Lucida Console;strokeWidth=2;entryX=0;entryY=0;entryDx=0;entryDy=0;exitX=0;exitY=1;exitDx=0;exitDy=0;" edge="1" parent="1" source="4s3Qs3QtYAxI6wC10brD-55" target="4s3Qs3QtYAxI6wC10brD-55">
          <mxGeometry width="50" height="50" relative="1" as="geometry">
            <mxPoint x="1201" y="625" as="sourcePoint" />
            <mxPoint x="1251" y="575" as="targetPoint" />
          </mxGeometry>
        </mxCell>
        <mxCell id="4s3Qs3QtYAxI6wC10brD-62" value="" style="endArrow=none;html=1;rounded=0;fontFamily=Lucida Console;strokeWidth=2;exitX=1;exitY=0;exitDx=0;exitDy=0;" edge="1" parent="1">
          <mxGeometry width="50" height="50" relative="1" as="geometry">
            <mxPoint x="1151" y="707" as="sourcePoint" />
            <mxPoint x="1151" y="637" as="targetPoint" />
          </mxGeometry>
        </mxCell>
        <mxCell id="4s3Qs3QtYAxI6wC10brD-63" value="" style="endArrow=none;html=1;rounded=0;fontFamily=Lucida Console;strokeWidth=2;entryX=1;entryY=0;entryDx=0;entryDy=0;" edge="1" parent="1" target="4s3Qs3QtYAxI6wC10brD-50">
          <mxGeometry width="50" height="50" relative="1" as="geometry">
            <mxPoint x="1341" y="665" as="sourcePoint" />
            <mxPoint x="1261" y="665" as="targetPoint" />
          </mxGeometry>
        </mxCell>
        <mxCell id="4s3Qs3QtYAxI6wC10brD-64" value="" style="rounded=0;whiteSpace=wrap;html=1;fontFamily=Lucida Console;strokeWidth=2;spacingLeft=5;spacingRight=5;" vertex="1" parent="1">
          <mxGeometry x="1401" y="735" width="190" height="30" as="geometry" />
        </mxCell>
        <mxCell id="4s3Qs3QtYAxI6wC10brD-65" value="Fin_Principal" style="rounded=0;whiteSpace=wrap;html=1;fontFamily=Lucida Console;strokeWidth=2;spacingLeft=5;spacingRight=5;" vertex="1" parent="1">
          <mxGeometry x="891" y="795" width="700" height="30" as="geometry" />
        </mxCell>
        <mxCell id="4s3Qs3QtYAxI6wC10brD-66" value="op" style="verticalLabelPosition=middle;verticalAlign=middle;html=1;shape=mxgraph.basic.acute_triangle;dx=0.5;strokeWidth=2;labelPosition=center;align=center;" vertex="1" parent="1">
          <mxGeometry x="38" y="650" width="710" height="70" as="geometry" />
        </mxCell>
      </root>
    </mxGraphModel>
  </diagram>
  <diagram id="mwFq5V5whzVOD70re1W0" name="Cola">
    <mxGraphModel dx="1887" dy="1129" grid="1" gridSize="10" guides="1" tooltips="1" connect="1" arrows="1" fold="1" page="1" pageScale="1" pageWidth="827" pageHeight="1169" math="0" shadow="0">
      <root>
        <mxCell id="0" />
        <mxCell id="1" parent="0" />
        <mxCell id="B5XmUSLPluAOrI2ctVeX-1" style="edgeStyle=orthogonalEdgeStyle;rounded=0;orthogonalLoop=1;jettySize=auto;html=1;exitX=0.5;exitY=1;exitDx=0;exitDy=0;exitPerimeter=0;entryX=0.5;entryY=0;entryDx=0;entryDy=0;entryPerimeter=0;fontFamily=Lucida Console;" edge="1" parent="1" source="B5XmUSLPluAOrI2ctVeX-2" target="B5XmUSLPluAOrI2ctVeX-7">
          <mxGeometry relative="1" as="geometry" />
        </mxCell>
        <mxCell id="B5XmUSLPluAOrI2ctVeX-2" value="Inicio_insertar(Cadena x)" style="strokeWidth=2;html=1;shape=mxgraph.flowchart.terminator;whiteSpace=wrap;fontFamily=Lucida Console;" vertex="1" parent="1">
          <mxGeometry x="319" y="115.5" width="220" height="40" as="geometry" />
        </mxCell>
        <mxCell id="B5XmUSLPluAOrI2ctVeX-3" style="edgeStyle=orthogonalEdgeStyle;rounded=0;orthogonalLoop=1;jettySize=auto;html=1;exitX=1;exitY=0.5;exitDx=0;exitDy=0;exitPerimeter=0;entryX=0.572;entryY=0.003;entryDx=0;entryDy=0;entryPerimeter=0;fontFamily=Lucida Console;" edge="1" parent="1" source="B5XmUSLPluAOrI2ctVeX-7" target="B5XmUSLPluAOrI2ctVeX-9">
          <mxGeometry relative="1" as="geometry">
            <mxPoint x="549" y="285.5" as="targetPoint" />
          </mxGeometry>
        </mxCell>
        <mxCell id="B5XmUSLPluAOrI2ctVeX-4" value="&amp;nbsp;v&amp;nbsp;" style="edgeLabel;html=1;align=center;verticalAlign=middle;resizable=0;points=[];fontFamily=Lucida Console;" vertex="1" connectable="0" parent="B5XmUSLPluAOrI2ctVeX-3">
          <mxGeometry x="-0.6565" relative="1" as="geometry">
            <mxPoint x="51" y="15" as="offset" />
          </mxGeometry>
        </mxCell>
        <mxCell id="B5XmUSLPluAOrI2ctVeX-5" style="edgeStyle=orthogonalEdgeStyle;rounded=0;orthogonalLoop=1;jettySize=auto;html=1;exitX=0;exitY=0.5;exitDx=0;exitDy=0;exitPerimeter=0;entryX=0.5;entryY=0;entryDx=0;entryDy=0;fontFamily=Lucida Console;" edge="1" parent="1" source="B5XmUSLPluAOrI2ctVeX-7" target="B5XmUSLPluAOrI2ctVeX-11">
          <mxGeometry relative="1" as="geometry" />
        </mxCell>
        <mxCell id="B5XmUSLPluAOrI2ctVeX-6" value="&amp;nbsp;F&amp;nbsp;" style="edgeLabel;html=1;align=center;verticalAlign=middle;resizable=0;points=[];fontFamily=Lucida Console;" vertex="1" connectable="0" parent="B5XmUSLPluAOrI2ctVeX-5">
          <mxGeometry x="-0.4993" y="-1" relative="1" as="geometry">
            <mxPoint x="-23" y="16" as="offset" />
          </mxGeometry>
        </mxCell>
        <mxCell id="B5XmUSLPluAOrI2ctVeX-7" value="final = n" style="strokeWidth=2;html=1;shape=mxgraph.flowchart.decision;whiteSpace=wrap;fontFamily=Lucida Console;" vertex="1" parent="1">
          <mxGeometry x="374" y="185.5" width="110" height="50" as="geometry" />
        </mxCell>
        <mxCell id="B5XmUSLPluAOrI2ctVeX-8" style="edgeStyle=orthogonalEdgeStyle;rounded=0;orthogonalLoop=1;jettySize=auto;html=1;exitX=0.5;exitY=1;exitDx=0;exitDy=0;exitPerimeter=0;entryX=0.5;entryY=0;entryDx=0;entryDy=0;entryPerimeter=0;fontFamily=Lucida Console;" edge="1" parent="1" source="B5XmUSLPluAOrI2ctVeX-9" target="B5XmUSLPluAOrI2ctVeX-20">
          <mxGeometry relative="1" as="geometry">
            <Array as="points">
              <mxPoint x="554" y="494" />
              <mxPoint x="429" y="494" />
            </Array>
          </mxGeometry>
        </mxCell>
        <mxCell id="B5XmUSLPluAOrI2ctVeX-9" value="Cola llena" style="strokeWidth=2;html=1;shape=mxgraph.flowchart.display;whiteSpace=wrap;spacingLeft=20;spacingRight=10;fontFamily=Lucida Console;" vertex="1" parent="1">
          <mxGeometry x="499" y="274" width="110" height="50" as="geometry" />
        </mxCell>
        <mxCell id="B5XmUSLPluAOrI2ctVeX-10" style="edgeStyle=orthogonalEdgeStyle;rounded=0;orthogonalLoop=1;jettySize=auto;html=1;exitX=0.5;exitY=1;exitDx=0;exitDy=0;entryX=0.5;entryY=0;entryDx=0;entryDy=0;fontFamily=Lucida Console;" edge="1" parent="1" source="B5XmUSLPluAOrI2ctVeX-11" target="B5XmUSLPluAOrI2ctVeX-13">
          <mxGeometry relative="1" as="geometry" />
        </mxCell>
        <mxCell id="B5XmUSLPluAOrI2ctVeX-11" value="final &amp;lt;-- final + 1" style="rounded=1;whiteSpace=wrap;html=1;absoluteArcSize=1;arcSize=14;strokeWidth=2;fontFamily=Lucida Console;" vertex="1" parent="1">
          <mxGeometry x="249" y="254" width="160" height="30" as="geometry" />
        </mxCell>
        <mxCell id="B5XmUSLPluAOrI2ctVeX-12" style="edgeStyle=orthogonalEdgeStyle;rounded=0;orthogonalLoop=1;jettySize=auto;html=1;exitX=0.5;exitY=1;exitDx=0;exitDy=0;entryX=0.5;entryY=0;entryDx=0;entryDy=0;entryPerimeter=0;fontFamily=Lucida Console;" edge="1" parent="1" source="B5XmUSLPluAOrI2ctVeX-13" target="B5XmUSLPluAOrI2ctVeX-17">
          <mxGeometry relative="1" as="geometry" />
        </mxCell>
        <mxCell id="B5XmUSLPluAOrI2ctVeX-13" value="arreglo[final] &amp;lt;-- x" style="rounded=1;whiteSpace=wrap;html=1;absoluteArcSize=1;arcSize=14;strokeWidth=2;fontFamily=Lucida Console;" vertex="1" parent="1">
          <mxGeometry x="249" y="304" width="160" height="30" as="geometry" />
        </mxCell>
        <mxCell id="B5XmUSLPluAOrI2ctVeX-14" style="edgeStyle=orthogonalEdgeStyle;rounded=0;orthogonalLoop=1;jettySize=auto;html=1;exitX=1;exitY=0.5;exitDx=0;exitDy=0;exitPerimeter=0;fontFamily=Lucida Console;" edge="1" parent="1" source="B5XmUSLPluAOrI2ctVeX-17">
          <mxGeometry relative="1" as="geometry">
            <mxPoint x="329" y="444" as="targetPoint" />
          </mxGeometry>
        </mxCell>
        <mxCell id="B5XmUSLPluAOrI2ctVeX-15" value="&amp;nbsp;v&amp;nbsp;" style="edgeLabel;html=1;align=center;verticalAlign=middle;resizable=0;points=[];fontFamily=Lucida Console;" vertex="1" connectable="0" parent="B5XmUSLPluAOrI2ctVeX-14">
          <mxGeometry x="-0.6001" relative="1" as="geometry">
            <mxPoint as="offset" />
          </mxGeometry>
        </mxCell>
        <mxCell id="B5XmUSLPluAOrI2ctVeX-16" style="edgeStyle=orthogonalEdgeStyle;rounded=0;orthogonalLoop=1;jettySize=auto;html=1;exitX=0;exitY=0.5;exitDx=0;exitDy=0;exitPerimeter=0;fontFamily=Lucida Console;entryX=0.5;entryY=0;entryDx=0;entryDy=0;entryPerimeter=0;" edge="1" parent="1" target="B5XmUSLPluAOrI2ctVeX-20">
          <mxGeometry relative="1" as="geometry">
            <mxPoint x="429" y="518" as="targetPoint" />
            <mxPoint x="266.5" y="378" as="sourcePoint" />
            <Array as="points">
              <mxPoint x="219" y="378.5" />
              <mxPoint x="219" y="494.5" />
              <mxPoint x="429" y="494.5" />
            </Array>
          </mxGeometry>
        </mxCell>
        <mxCell id="B5XmUSLPluAOrI2ctVeX-17" value="frente = -1" style="strokeWidth=2;html=1;shape=mxgraph.flowchart.decision;whiteSpace=wrap;fontFamily=Lucida Console;" vertex="1" parent="1">
          <mxGeometry x="266.5" y="354" width="125" height="50" as="geometry" />
        </mxCell>
        <mxCell id="B5XmUSLPluAOrI2ctVeX-18" style="edgeStyle=orthogonalEdgeStyle;rounded=0;orthogonalLoop=1;jettySize=auto;html=1;exitX=0.5;exitY=1;exitDx=0;exitDy=0;entryX=0.5;entryY=0;entryDx=0;entryDy=0;entryPerimeter=0;fontFamily=Lucida Console;" edge="1" parent="1" source="B5XmUSLPluAOrI2ctVeX-19" target="B5XmUSLPluAOrI2ctVeX-20">
          <mxGeometry relative="1" as="geometry">
            <Array as="points">
              <mxPoint x="329" y="494" />
              <mxPoint x="429" y="494" />
            </Array>
          </mxGeometry>
        </mxCell>
        <mxCell id="B5XmUSLPluAOrI2ctVeX-19" value="frente &amp;lt;-- 0" style="rounded=1;whiteSpace=wrap;html=1;absoluteArcSize=1;arcSize=14;strokeWidth=2;fontFamily=Lucida Console;" vertex="1" parent="1">
          <mxGeometry x="249" y="444" width="160" height="30" as="geometry" />
        </mxCell>
        <mxCell id="B5XmUSLPluAOrI2ctVeX-20" value="Fin_insertar" style="strokeWidth=2;html=1;shape=mxgraph.flowchart.terminator;whiteSpace=wrap;fontFamily=Lucida Console;" vertex="1" parent="1">
          <mxGeometry x="374" y="519" width="110" height="40" as="geometry" />
        </mxCell>
        <mxCell id="B5XmUSLPluAOrI2ctVeX-21" style="edgeStyle=orthogonalEdgeStyle;rounded=0;orthogonalLoop=1;jettySize=auto;html=1;exitX=0.5;exitY=1;exitDx=0;exitDy=0;exitPerimeter=0;entryX=0.5;entryY=0;entryDx=0;entryDy=0;strokeWidth=1;" edge="1" parent="1" source="B5XmUSLPluAOrI2ctVeX-22" target="B5XmUSLPluAOrI2ctVeX-84">
          <mxGeometry relative="1" as="geometry" />
        </mxCell>
        <mxCell id="B5XmUSLPluAOrI2ctVeX-22" value="Inicio_suprimir() : Cadena" style="strokeWidth=2;html=1;shape=mxgraph.flowchart.terminator;whiteSpace=wrap;fontFamily=Lucida Console;" vertex="1" parent="1">
          <mxGeometry x="1237.5" y="42.5" width="220" height="40" as="geometry" />
        </mxCell>
        <mxCell id="B5XmUSLPluAOrI2ctVeX-23" style="edgeStyle=orthogonalEdgeStyle;rounded=0;orthogonalLoop=1;jettySize=auto;html=1;exitX=1;exitY=0.5;exitDx=0;exitDy=0;exitPerimeter=0;entryX=0.572;entryY=0.003;entryDx=0;entryDy=0;entryPerimeter=0;fontFamily=Lucida Console;" edge="1" parent="1" source="B5XmUSLPluAOrI2ctVeX-27" target="B5XmUSLPluAOrI2ctVeX-29">
          <mxGeometry relative="1" as="geometry">
            <mxPoint x="1475" y="350.5" as="targetPoint" />
            <mxPoint x="1410" y="275.5" as="sourcePoint" />
          </mxGeometry>
        </mxCell>
        <mxCell id="B5XmUSLPluAOrI2ctVeX-24" value="&amp;nbsp;v&amp;nbsp;" style="edgeLabel;html=1;align=center;verticalAlign=middle;resizable=0;points=[];fontFamily=Lucida Console;" vertex="1" connectable="0" parent="B5XmUSLPluAOrI2ctVeX-23">
          <mxGeometry x="-0.6565" relative="1" as="geometry">
            <mxPoint x="41" y="19" as="offset" />
          </mxGeometry>
        </mxCell>
        <mxCell id="B5XmUSLPluAOrI2ctVeX-25" style="edgeStyle=orthogonalEdgeStyle;rounded=0;orthogonalLoop=1;jettySize=auto;html=1;entryX=0.5;entryY=0;entryDx=0;entryDy=0;fontFamily=Lucida Console;exitX=0;exitY=0.5;exitDx=0;exitDy=0;exitPerimeter=0;" edge="1" parent="1" source="B5XmUSLPluAOrI2ctVeX-27" target="B5XmUSLPluAOrI2ctVeX-31">
          <mxGeometry relative="1" as="geometry">
            <mxPoint x="1245" y="264.5" as="sourcePoint" />
          </mxGeometry>
        </mxCell>
        <mxCell id="B5XmUSLPluAOrI2ctVeX-26" value="&amp;nbsp;F&amp;nbsp;" style="edgeLabel;html=1;align=center;verticalAlign=middle;resizable=0;points=[];fontFamily=Lucida Console;" vertex="1" connectable="0" parent="B5XmUSLPluAOrI2ctVeX-25">
          <mxGeometry x="-0.4993" y="-1" relative="1" as="geometry">
            <mxPoint x="-84" y="20" as="offset" />
          </mxGeometry>
        </mxCell>
        <mxCell id="B5XmUSLPluAOrI2ctVeX-27" value="frente = -1" style="strokeWidth=2;html=1;shape=mxgraph.flowchart.decision;whiteSpace=wrap;fontFamily=Lucida Console;" vertex="1" parent="1">
          <mxGeometry x="1285" y="204.5" width="125" height="50" as="geometry" />
        </mxCell>
        <mxCell id="B5XmUSLPluAOrI2ctVeX-28" style="edgeStyle=orthogonalEdgeStyle;rounded=0;orthogonalLoop=1;jettySize=auto;html=1;exitX=0.5;exitY=1;exitDx=0;exitDy=0;exitPerimeter=0;entryX=0.5;entryY=0;entryDx=0;entryDy=0;fontFamily=Lucida Console;" edge="1" parent="1" source="B5XmUSLPluAOrI2ctVeX-29" target="B5XmUSLPluAOrI2ctVeX-49">
          <mxGeometry relative="1" as="geometry">
            <Array as="points">
              <mxPoint x="1470" y="614.5" />
              <mxPoint x="1355" y="614.5" />
              <mxPoint x="1355" y="654.5" />
            </Array>
          </mxGeometry>
        </mxCell>
        <mxCell id="B5XmUSLPluAOrI2ctVeX-29" value="Cola vacía" style="strokeWidth=2;html=1;shape=mxgraph.flowchart.display;whiteSpace=wrap;spacingLeft=20;spacingRight=10;fontFamily=Lucida Console;" vertex="1" parent="1">
          <mxGeometry x="1415" y="303" width="110" height="50" as="geometry" />
        </mxCell>
        <mxCell id="B5XmUSLPluAOrI2ctVeX-30" style="edgeStyle=orthogonalEdgeStyle;rounded=0;orthogonalLoop=1;jettySize=auto;html=1;exitX=0.5;exitY=1;exitDx=0;exitDy=0;entryX=0.5;entryY=0;entryDx=0;entryDy=0;fontFamily=Lucida Console;" edge="1" parent="1" source="B5XmUSLPluAOrI2ctVeX-31" target="B5XmUSLPluAOrI2ctVeX-33">
          <mxGeometry relative="1" as="geometry" />
        </mxCell>
        <mxCell id="B5XmUSLPluAOrI2ctVeX-31" value="x &amp;lt;-- arreglo[frente]" style="rounded=1;whiteSpace=wrap;html=1;absoluteArcSize=1;arcSize=14;strokeWidth=2;fontFamily=Lucida Console;" vertex="1" parent="1">
          <mxGeometry x="1055" y="283" width="200" height="30" as="geometry" />
        </mxCell>
        <mxCell id="B5XmUSLPluAOrI2ctVeX-32" style="edgeStyle=orthogonalEdgeStyle;rounded=0;orthogonalLoop=1;jettySize=auto;html=1;exitX=0.5;exitY=1;exitDx=0;exitDy=0;entryX=0.5;entryY=0;entryDx=0;entryDy=0;entryPerimeter=0;fontFamily=Lucida Console;" edge="1" parent="1" source="B5XmUSLPluAOrI2ctVeX-33" target="B5XmUSLPluAOrI2ctVeX-38">
          <mxGeometry relative="1" as="geometry" />
        </mxCell>
        <mxCell id="B5XmUSLPluAOrI2ctVeX-33" value="arreglo[frente] &amp;lt;-- nulo" style="rounded=1;whiteSpace=wrap;html=1;absoluteArcSize=1;arcSize=14;strokeWidth=2;fontFamily=Lucida Console;" vertex="1" parent="1">
          <mxGeometry x="1055" y="333" width="200" height="30" as="geometry" />
        </mxCell>
        <mxCell id="B5XmUSLPluAOrI2ctVeX-34" style="edgeStyle=orthogonalEdgeStyle;rounded=0;orthogonalLoop=1;jettySize=auto;html=1;exitX=1;exitY=0.5;exitDx=0;exitDy=0;exitPerimeter=0;fontFamily=Lucida Console;entryX=0.5;entryY=0;entryDx=0;entryDy=0;" edge="1" parent="1" source="B5XmUSLPluAOrI2ctVeX-38" target="B5XmUSLPluAOrI2ctVeX-40">
          <mxGeometry relative="1" as="geometry">
            <mxPoint x="1155" y="473" as="targetPoint" />
            <Array as="points">
              <mxPoint x="1261" y="407.5" />
              <mxPoint x="1295" y="407.5" />
            </Array>
          </mxGeometry>
        </mxCell>
        <mxCell id="B5XmUSLPluAOrI2ctVeX-35" value="&amp;nbsp;v&amp;nbsp;" style="edgeLabel;html=1;align=center;verticalAlign=middle;resizable=0;points=[];fontFamily=Lucida Console;" vertex="1" connectable="0" parent="B5XmUSLPluAOrI2ctVeX-34">
          <mxGeometry x="-0.6689" y="-1" relative="1" as="geometry">
            <mxPoint x="16" y="14" as="offset" />
          </mxGeometry>
        </mxCell>
        <mxCell id="B5XmUSLPluAOrI2ctVeX-36" style="edgeStyle=orthogonalEdgeStyle;rounded=0;orthogonalLoop=1;jettySize=auto;html=1;exitX=0;exitY=0.5;exitDx=0;exitDy=0;exitPerimeter=0;entryX=0.5;entryY=0;entryDx=0;entryDy=0;fontFamily=Lucida Console;" edge="1" parent="1" source="B5XmUSLPluAOrI2ctVeX-38" target="B5XmUSLPluAOrI2ctVeX-47">
          <mxGeometry relative="1" as="geometry" />
        </mxCell>
        <mxCell id="B5XmUSLPluAOrI2ctVeX-37" value="&amp;nbsp;F&amp;nbsp;" style="edgeLabel;html=1;align=center;verticalAlign=middle;resizable=0;points=[];fontFamily=Lucida Console;" vertex="1" connectable="0" parent="B5XmUSLPluAOrI2ctVeX-36">
          <mxGeometry x="-0.0379" y="-2" relative="1" as="geometry">
            <mxPoint as="offset" />
          </mxGeometry>
        </mxCell>
        <mxCell id="B5XmUSLPluAOrI2ctVeX-38" value="frente = final" style="strokeWidth=2;html=1;shape=mxgraph.flowchart.decision;whiteSpace=wrap;fontFamily=Lucida Console;" vertex="1" parent="1">
          <mxGeometry x="1068.75" y="383" width="172.5" height="50" as="geometry" />
        </mxCell>
        <mxCell id="B5XmUSLPluAOrI2ctVeX-39" style="edgeStyle=orthogonalEdgeStyle;rounded=0;orthogonalLoop=1;jettySize=auto;html=1;exitX=0.5;exitY=1;exitDx=0;exitDy=0;entryX=0.5;entryY=0;entryDx=0;entryDy=0;fontFamily=Lucida Console;" edge="1" parent="1" source="B5XmUSLPluAOrI2ctVeX-40" target="B5XmUSLPluAOrI2ctVeX-45">
          <mxGeometry relative="1" as="geometry" />
        </mxCell>
        <mxCell id="B5XmUSLPluAOrI2ctVeX-40" value="frente &amp;lt;-- -1" style="rounded=1;whiteSpace=wrap;html=1;absoluteArcSize=1;arcSize=14;strokeWidth=2;fontFamily=Lucida Console;" vertex="1" parent="1">
          <mxGeometry x="1195" y="477.5" width="160" height="30" as="geometry" />
        </mxCell>
        <mxCell id="B5XmUSLPluAOrI2ctVeX-41" value="Fin_suprimir" style="strokeWidth=2;html=1;shape=mxgraph.flowchart.terminator;whiteSpace=wrap;fontFamily=Lucida Console;" vertex="1" parent="1">
          <mxGeometry x="1300" y="684.5" width="110" height="40" as="geometry" />
        </mxCell>
        <mxCell id="B5XmUSLPluAOrI2ctVeX-42" style="edgeStyle=orthogonalEdgeStyle;rounded=0;orthogonalLoop=1;jettySize=auto;html=1;exitX=0.5;exitY=1;exitDx=0;exitDy=0;entryX=0.5;entryY=0;entryDx=0;entryDy=0;entryPerimeter=0;fontFamily=Lucida Console;" edge="1" parent="1" source="B5XmUSLPluAOrI2ctVeX-43" target="B5XmUSLPluAOrI2ctVeX-27">
          <mxGeometry relative="1" as="geometry" />
        </mxCell>
        <mxCell id="B5XmUSLPluAOrI2ctVeX-43" value="x &amp;lt;-- &quot; &quot;" style="rounded=1;whiteSpace=wrap;html=1;absoluteArcSize=1;arcSize=14;strokeWidth=2;fontFamily=Lucida Console;" vertex="1" parent="1">
          <mxGeometry x="1262.5" y="154.5" width="170" height="30" as="geometry" />
        </mxCell>
        <mxCell id="B5XmUSLPluAOrI2ctVeX-44" style="edgeStyle=orthogonalEdgeStyle;rounded=0;orthogonalLoop=1;jettySize=auto;html=1;exitX=0.5;exitY=1;exitDx=0;exitDy=0;entryX=0.5;entryY=0;entryDx=0;entryDy=0;fontFamily=Lucida Console;" edge="1" parent="1" source="B5XmUSLPluAOrI2ctVeX-45" target="B5XmUSLPluAOrI2ctVeX-49">
          <mxGeometry relative="1" as="geometry">
            <mxPoint x="1385" y="654.5" as="targetPoint" />
            <Array as="points">
              <mxPoint x="1275" y="614.5" />
              <mxPoint x="1355" y="614.5" />
              <mxPoint x="1355" y="654.5" />
            </Array>
          </mxGeometry>
        </mxCell>
        <mxCell id="B5XmUSLPluAOrI2ctVeX-45" value="final &amp;lt;-- -1" style="rounded=1;whiteSpace=wrap;html=1;absoluteArcSize=1;arcSize=14;strokeWidth=2;fontFamily=Lucida Console;" vertex="1" parent="1">
          <mxGeometry x="1195" y="529" width="160" height="30" as="geometry" />
        </mxCell>
        <mxCell id="B5XmUSLPluAOrI2ctVeX-46" style="edgeStyle=orthogonalEdgeStyle;rounded=0;orthogonalLoop=1;jettySize=auto;html=1;exitX=0.5;exitY=1;exitDx=0;exitDy=0;entryX=0.5;entryY=0;entryDx=0;entryDy=0;fontFamily=Lucida Console;" edge="1" parent="1" source="B5XmUSLPluAOrI2ctVeX-47" target="B5XmUSLPluAOrI2ctVeX-49">
          <mxGeometry relative="1" as="geometry">
            <mxPoint x="1385" y="654.5" as="targetPoint" />
            <Array as="points">
              <mxPoint x="1040" y="614.5" />
              <mxPoint x="1355" y="614.5" />
              <mxPoint x="1355" y="634.5" />
            </Array>
          </mxGeometry>
        </mxCell>
        <mxCell id="B5XmUSLPluAOrI2ctVeX-47" value="frente &amp;lt;-- frente + 1" style="rounded=1;whiteSpace=wrap;html=1;absoluteArcSize=1;arcSize=14;strokeWidth=2;fontFamily=Lucida Console;" vertex="1" parent="1">
          <mxGeometry x="955" y="477.5" width="170" height="30" as="geometry" />
        </mxCell>
        <mxCell id="B5XmUSLPluAOrI2ctVeX-48" style="edgeStyle=orthogonalEdgeStyle;rounded=0;orthogonalLoop=1;jettySize=auto;html=1;exitX=0.5;exitY=1;exitDx=0;exitDy=0;entryX=0.5;entryY=0;entryDx=0;entryDy=0;entryPerimeter=0;fontFamily=Lucida Console;" edge="1" parent="1" source="B5XmUSLPluAOrI2ctVeX-49" target="B5XmUSLPluAOrI2ctVeX-41">
          <mxGeometry relative="1" as="geometry" />
        </mxCell>
        <mxCell id="B5XmUSLPluAOrI2ctVeX-49" value="&lt;i&gt;retorna&lt;/i&gt; x" style="rounded=1;whiteSpace=wrap;html=1;absoluteArcSize=1;arcSize=14;strokeWidth=2;fontFamily=Lucida Console;" vertex="1" parent="1">
          <mxGeometry x="1308.13" y="634.5" width="93.75" height="30" as="geometry" />
        </mxCell>
        <mxCell id="B5XmUSLPluAOrI2ctVeX-50" value="Inicio_insertar(Cadena x)" style="rounded=0;whiteSpace=wrap;html=1;fontFamily=Lucida Console;strokeWidth=2;spacingLeft=5;spacingRight=5;" vertex="1" parent="1">
          <mxGeometry x="64" y="634.5" width="700" height="30" as="geometry" />
        </mxCell>
        <mxCell id="B5XmUSLPluAOrI2ctVeX-51" value="Si &lt;span style=&quot;white-space: pre;&quot;&gt;	&lt;/span&gt;&lt;span style=&quot;white-space: pre;&quot;&gt;	&lt;/span&gt;&lt;span style=&quot;white-space: pre;&quot;&gt;	&lt;/span&gt;&lt;span style=&quot;white-space: pre;&quot;&gt;	&lt;span style=&quot;white-space: pre;&quot;&gt;	&lt;/span&gt;&lt;/span&gt;final = n&lt;span style=&quot;white-space: pre;&quot;&gt;	&lt;/span&gt;&lt;span style=&quot;white-space: pre;&quot;&gt;	&lt;/span&gt; &lt;span style=&quot;white-space: pre;&quot;&gt;	&lt;/span&gt;&lt;span style=&quot;white-space: pre;&quot;&gt;	&lt;/span&gt;&lt;span style=&quot;white-space: pre;&quot;&gt;	&lt;/span&gt;No" style="rounded=0;whiteSpace=wrap;html=1;fontFamily=Lucida Console;strokeWidth=2;spacingLeft=5;spacingRight=5;" vertex="1" parent="1">
          <mxGeometry x="64" y="664.5" width="700" height="30" as="geometry" />
        </mxCell>
        <mxCell id="B5XmUSLPluAOrI2ctVeX-52" value="" style="endArrow=none;html=1;rounded=0;exitX=0;exitY=1;exitDx=0;exitDy=0;entryX=0.5;entryY=1;entryDx=0;entryDy=0;strokeWidth=2;" edge="1" parent="1" source="B5XmUSLPluAOrI2ctVeX-50" target="B5XmUSLPluAOrI2ctVeX-51">
          <mxGeometry width="50" height="50" relative="1" as="geometry">
            <mxPoint x="410" y="559.5" as="sourcePoint" />
            <mxPoint x="460" y="509.5" as="targetPoint" />
          </mxGeometry>
        </mxCell>
        <mxCell id="B5XmUSLPluAOrI2ctVeX-53" value="" style="endArrow=none;html=1;rounded=0;exitX=0.5;exitY=1;exitDx=0;exitDy=0;entryX=1;entryY=0;entryDx=0;entryDy=0;strokeWidth=2;" edge="1" parent="1" source="B5XmUSLPluAOrI2ctVeX-51" target="B5XmUSLPluAOrI2ctVeX-51">
          <mxGeometry width="50" height="50" relative="1" as="geometry">
            <mxPoint x="410" y="559.5" as="sourcePoint" />
            <mxPoint x="460" y="509.5" as="targetPoint" />
          </mxGeometry>
        </mxCell>
        <mxCell id="B5XmUSLPluAOrI2ctVeX-54" value="Escribir &quot;Cola llena&quot;" style="rounded=0;whiteSpace=wrap;html=1;fontFamily=Lucida Console;strokeWidth=2;spacingLeft=5;spacingRight=5;" vertex="1" parent="1">
          <mxGeometry x="64" y="694.5" width="350" height="30" as="geometry" />
        </mxCell>
        <mxCell id="B5XmUSLPluAOrI2ctVeX-55" value="final &amp;lt;-- final + 1" style="rounded=0;whiteSpace=wrap;html=1;fontFamily=Lucida Console;strokeWidth=2;spacingLeft=5;spacingRight=5;" vertex="1" parent="1">
          <mxGeometry x="414" y="694.5" width="350" height="30" as="geometry" />
        </mxCell>
        <mxCell id="B5XmUSLPluAOrI2ctVeX-56" value="arreglo[final] &amp;lt;-- x" style="rounded=0;whiteSpace=wrap;html=1;fontFamily=Lucida Console;strokeWidth=2;spacingLeft=5;spacingRight=5;" vertex="1" parent="1">
          <mxGeometry x="414" y="724.5" width="350" height="30" as="geometry" />
        </mxCell>
        <mxCell id="B5XmUSLPluAOrI2ctVeX-57" value="" style="rounded=0;whiteSpace=wrap;html=1;fontFamily=Lucida Console;strokeWidth=2;spacingLeft=5;spacingRight=5;" vertex="1" parent="1">
          <mxGeometry x="64" y="724.5" width="350" height="90" as="geometry" />
        </mxCell>
        <mxCell id="B5XmUSLPluAOrI2ctVeX-58" value="Si&lt;span style=&quot;white-space: pre;&quot;&gt;	&lt;/span&gt;&lt;span style=&quot;white-space: pre;&quot;&gt;	&lt;span style=&quot;white-space: pre;&quot;&gt;	&lt;/span&gt;&lt;/span&gt;frente = -1&amp;nbsp; &amp;nbsp;&amp;nbsp;&lt;span style=&quot;white-space: pre;&quot;&gt;	&lt;/span&gt;No" style="rounded=0;whiteSpace=wrap;html=1;fontFamily=Lucida Console;strokeWidth=2;spacingLeft=5;spacingRight=5;spacingTop=0;" vertex="1" parent="1">
          <mxGeometry x="414" y="754.5" width="350" height="30" as="geometry" />
        </mxCell>
        <mxCell id="B5XmUSLPluAOrI2ctVeX-59" value="" style="endArrow=none;html=1;rounded=0;strokeWidth=2;exitX=0.75;exitY=1;exitDx=0;exitDy=0;entryX=0;entryY=0;entryDx=0;entryDy=0;" edge="1" parent="1" source="B5XmUSLPluAOrI2ctVeX-58" target="B5XmUSLPluAOrI2ctVeX-58">
          <mxGeometry width="50" height="50" relative="1" as="geometry">
            <mxPoint x="190" y="649.5" as="sourcePoint" />
            <mxPoint x="430" y="839.5" as="targetPoint" />
          </mxGeometry>
        </mxCell>
        <mxCell id="B5XmUSLPluAOrI2ctVeX-60" value="" style="endArrow=none;html=1;rounded=0;strokeWidth=2;entryX=1;entryY=0;entryDx=0;entryDy=0;exitX=0.75;exitY=1;exitDx=0;exitDy=0;" edge="1" parent="1" source="B5XmUSLPluAOrI2ctVeX-58" target="B5XmUSLPluAOrI2ctVeX-58">
          <mxGeometry width="50" height="50" relative="1" as="geometry">
            <mxPoint x="370" y="879.5" as="sourcePoint" />
            <mxPoint x="420" y="829.5" as="targetPoint" />
          </mxGeometry>
        </mxCell>
        <mxCell id="B5XmUSLPluAOrI2ctVeX-61" value="frente &amp;lt;-- 0" style="rounded=0;whiteSpace=wrap;html=1;fontFamily=Lucida Console;strokeWidth=2;spacingLeft=5;spacingRight=5;" vertex="1" parent="1">
          <mxGeometry x="414" y="784.5" width="262.5" height="30" as="geometry" />
        </mxCell>
        <mxCell id="B5XmUSLPluAOrI2ctVeX-62" value="" style="rounded=0;whiteSpace=wrap;html=1;fontFamily=Lucida Console;strokeWidth=2;spacingLeft=5;spacingRight=5;" vertex="1" parent="1">
          <mxGeometry x="676.5" y="784.5" width="87.5" height="30" as="geometry" />
        </mxCell>
        <mxCell id="B5XmUSLPluAOrI2ctVeX-63" value="Fin_insertar" style="rounded=0;whiteSpace=wrap;html=1;fontFamily=Lucida Console;strokeWidth=2;spacingLeft=5;spacingRight=5;" vertex="1" parent="1">
          <mxGeometry x="64" y="814.5" width="700" height="30" as="geometry" />
        </mxCell>
        <mxCell id="B5XmUSLPluAOrI2ctVeX-64" value="Inicio_suprimir() : Cadena" style="rounded=0;whiteSpace=wrap;html=1;fontFamily=Lucida Console;strokeWidth=2;spacingLeft=5;spacingRight=5;" vertex="1" parent="1">
          <mxGeometry x="890" y="780" width="700" height="30" as="geometry" />
        </mxCell>
        <mxCell id="B5XmUSLPluAOrI2ctVeX-65" value="Si &lt;span style=&quot;white-space: pre;&quot;&gt;	&lt;/span&gt;&lt;span style=&quot;white-space: pre;&quot;&gt;	&lt;/span&gt;&lt;span style=&quot;white-space: pre;&quot;&gt;	&lt;/span&gt;&lt;span style=&quot;white-space: pre;&quot;&gt;	&lt;span style=&quot;white-space: pre;&quot;&gt;	&lt;/span&gt;f&lt;/span&gt;rente = -1&lt;span style=&quot;white-space: pre;&quot;&gt;	&lt;/span&gt;&lt;span style=&quot;white-space: pre;&quot;&gt;	&lt;/span&gt; &lt;span style=&quot;white-space: pre;&quot;&gt;	&lt;/span&gt;&lt;span style=&quot;white-space: pre;&quot;&gt;	&lt;/span&gt;&lt;span style=&quot;white-space: pre;&quot;&gt;	&lt;/span&gt;No" style="rounded=0;whiteSpace=wrap;html=1;fontFamily=Lucida Console;strokeWidth=2;spacingLeft=5;spacingRight=5;" vertex="1" parent="1">
          <mxGeometry x="890" y="870" width="700" height="30" as="geometry" />
        </mxCell>
        <mxCell id="B5XmUSLPluAOrI2ctVeX-66" value="" style="endArrow=none;html=1;rounded=0;exitX=0;exitY=1;exitDx=0;exitDy=0;entryX=0.5;entryY=1;entryDx=0;entryDy=0;strokeWidth=2;" edge="1" parent="1" target="B5XmUSLPluAOrI2ctVeX-65">
          <mxGeometry width="50" height="50" relative="1" as="geometry">
            <mxPoint x="889.9999999999995" y="870" as="sourcePoint" />
            <mxPoint x="1286" y="715" as="targetPoint" />
          </mxGeometry>
        </mxCell>
        <mxCell id="B5XmUSLPluAOrI2ctVeX-67" value="" style="endArrow=none;html=1;rounded=0;exitX=0.5;exitY=1;exitDx=0;exitDy=0;entryX=1;entryY=0;entryDx=0;entryDy=0;strokeWidth=2;" edge="1" parent="1" source="B5XmUSLPluAOrI2ctVeX-65" target="B5XmUSLPluAOrI2ctVeX-65">
          <mxGeometry width="50" height="50" relative="1" as="geometry">
            <mxPoint x="1236" y="765" as="sourcePoint" />
            <mxPoint x="1286" y="715" as="targetPoint" />
          </mxGeometry>
        </mxCell>
        <mxCell id="B5XmUSLPluAOrI2ctVeX-68" value="Escribir &quot;Cola vacía&quot;" style="rounded=0;whiteSpace=wrap;html=1;fontFamily=Lucida Console;strokeWidth=2;spacingLeft=5;spacingRight=5;" vertex="1" parent="1">
          <mxGeometry x="890" y="900" width="350" height="30" as="geometry" />
        </mxCell>
        <mxCell id="B5XmUSLPluAOrI2ctVeX-69" value="x &amp;lt;-- arreglo[frente]" style="rounded=0;whiteSpace=wrap;html=1;fontFamily=Lucida Console;strokeWidth=2;spacingLeft=5;spacingRight=5;" vertex="1" parent="1">
          <mxGeometry x="1240" y="900" width="350" height="30" as="geometry" />
        </mxCell>
        <mxCell id="B5XmUSLPluAOrI2ctVeX-70" value="arreglo[frente] &amp;lt;-- nulo" style="rounded=0;whiteSpace=wrap;html=1;fontFamily=Lucida Console;strokeWidth=2;spacingLeft=5;spacingRight=5;" vertex="1" parent="1">
          <mxGeometry x="1240" y="930" width="350" height="30" as="geometry" />
        </mxCell>
        <mxCell id="B5XmUSLPluAOrI2ctVeX-71" value="" style="rounded=0;whiteSpace=wrap;html=1;fontFamily=Lucida Console;strokeWidth=2;spacingLeft=5;spacingRight=5;" vertex="1" parent="1">
          <mxGeometry x="890" y="930" width="350" height="120" as="geometry" />
        </mxCell>
        <mxCell id="B5XmUSLPluAOrI2ctVeX-72" value="Si&lt;span style=&quot;white-space: pre;&quot;&gt;	&amp;nbsp;&lt;/span&gt;&amp;nbsp; &amp;nbsp; &amp;nbsp;frente = final&lt;span style=&quot;white-space: pre;&quot;&gt;	&lt;/span&gt;&amp;nbsp; &amp;nbsp;&amp;nbsp;&lt;span style=&quot;white-space: pre;&quot;&gt;	&lt;/span&gt;No" style="rounded=0;whiteSpace=wrap;html=1;fontFamily=Lucida Console;strokeWidth=2;spacingLeft=5;spacingRight=5;spacingTop=0;" vertex="1" parent="1">
          <mxGeometry x="1240" y="960" width="350" height="30" as="geometry" />
        </mxCell>
        <mxCell id="B5XmUSLPluAOrI2ctVeX-73" value="" style="endArrow=none;html=1;rounded=0;strokeWidth=2;exitX=1;exitY=0;exitDx=0;exitDy=0;entryX=0;entryY=0;entryDx=0;entryDy=0;" edge="1" parent="1" source="B5XmUSLPluAOrI2ctVeX-75" target="B5XmUSLPluAOrI2ctVeX-72">
          <mxGeometry width="50" height="50" relative="1" as="geometry">
            <mxPoint x="1016" y="855" as="sourcePoint" />
            <mxPoint x="1256" y="1045" as="targetPoint" />
          </mxGeometry>
        </mxCell>
        <mxCell id="B5XmUSLPluAOrI2ctVeX-74" value="" style="endArrow=none;html=1;rounded=0;strokeWidth=2;entryX=1;entryY=0;entryDx=0;entryDy=0;exitX=1;exitY=0;exitDx=0;exitDy=0;" edge="1" parent="1" source="B5XmUSLPluAOrI2ctVeX-75" target="B5XmUSLPluAOrI2ctVeX-72">
          <mxGeometry width="50" height="50" relative="1" as="geometry">
            <mxPoint x="1196" y="1085" as="sourcePoint" />
            <mxPoint x="1246" y="1035" as="targetPoint" />
          </mxGeometry>
        </mxCell>
        <mxCell id="B5XmUSLPluAOrI2ctVeX-75" value="frente &amp;lt;-- -1" style="rounded=0;whiteSpace=wrap;html=1;fontFamily=Lucida Console;strokeWidth=2;spacingLeft=5;spacingRight=5;" vertex="1" parent="1">
          <mxGeometry x="1240" y="990" width="175" height="30" as="geometry" />
        </mxCell>
        <mxCell id="B5XmUSLPluAOrI2ctVeX-76" value="frente &amp;lt;-- frente + 1" style="rounded=0;whiteSpace=wrap;html=1;fontFamily=Lucida Console;strokeWidth=2;spacingLeft=5;spacingRight=5;" vertex="1" parent="1">
          <mxGeometry x="1415" y="990" width="175" height="30" as="geometry" />
        </mxCell>
        <mxCell id="B5XmUSLPluAOrI2ctVeX-77" value="Fin_suprimir" style="rounded=0;whiteSpace=wrap;html=1;fontFamily=Lucida Console;strokeWidth=2;spacingLeft=5;spacingRight=5;" vertex="1" parent="1">
          <mxGeometry x="890" y="1080" width="700" height="30" as="geometry" />
        </mxCell>
        <mxCell id="B5XmUSLPluAOrI2ctVeX-78" value="Definir x como Cadena" style="rounded=0;whiteSpace=wrap;html=1;fontFamily=Lucida Console;strokeWidth=2;spacingLeft=5;spacingRight=5;" vertex="1" parent="1">
          <mxGeometry x="890" y="810" width="700" height="30" as="geometry" />
        </mxCell>
        <mxCell id="B5XmUSLPluAOrI2ctVeX-79" value="final &amp;lt;-- -1" style="rounded=0;whiteSpace=wrap;html=1;fontFamily=Lucida Console;strokeWidth=2;spacingLeft=5;spacingRight=5;" vertex="1" parent="1">
          <mxGeometry x="1240" y="1020" width="175" height="30" as="geometry" />
        </mxCell>
        <mxCell id="B5XmUSLPluAOrI2ctVeX-80" value="" style="rounded=0;whiteSpace=wrap;html=1;fontFamily=Lucida Console;strokeWidth=2;spacingLeft=5;spacingRight=5;" vertex="1" parent="1">
          <mxGeometry x="1415" y="1020" width="175" height="30" as="geometry" />
        </mxCell>
        <mxCell id="B5XmUSLPluAOrI2ctVeX-81" value="&lt;i&gt;retorna&lt;/i&gt; x" style="rounded=0;whiteSpace=wrap;html=1;fontFamily=Lucida Console;strokeWidth=2;spacingLeft=5;spacingRight=5;" vertex="1" parent="1">
          <mxGeometry x="890" y="1050" width="700" height="30" as="geometry" />
        </mxCell>
        <mxCell id="B5XmUSLPluAOrI2ctVeX-82" value="x &amp;lt;-- &quot; &quot;" style="rounded=0;whiteSpace=wrap;html=1;fontFamily=Lucida Console;strokeWidth=2;spacingLeft=5;spacingRight=5;" vertex="1" parent="1">
          <mxGeometry x="890" y="840" width="700" height="30" as="geometry" />
        </mxCell>
        <mxCell id="B5XmUSLPluAOrI2ctVeX-83" style="edgeStyle=orthogonalEdgeStyle;rounded=0;orthogonalLoop=1;jettySize=auto;html=1;exitX=0.5;exitY=1;exitDx=0;exitDy=0;entryX=0.5;entryY=0;entryDx=0;entryDy=0;strokeWidth=1;" edge="1" parent="1" source="B5XmUSLPluAOrI2ctVeX-84" target="B5XmUSLPluAOrI2ctVeX-43">
          <mxGeometry relative="1" as="geometry" />
        </mxCell>
        <mxCell id="B5XmUSLPluAOrI2ctVeX-84" value="Definir x como Cadena" style="rounded=1;whiteSpace=wrap;html=1;absoluteArcSize=1;arcSize=14;strokeWidth=2;fontFamily=Lucida Console;" vertex="1" parent="1">
          <mxGeometry x="1262.5" y="102.5" width="170" height="30" as="geometry" />
        </mxCell>
      </root>
    </mxGraphModel>
  </diagram>
</mxfile>
